<svg id="Layer_1" xmlns="http://www.w3.org/2000/svg" viewBox="0 0 48 48">
    <style>
        .st0{
        fill:#008fb7;
        stroke:#008fb7;
        stroke-width:2;
        }</style>
    <path class="st0" d="M40.4 5.5h-8.7c-.2 0-.4-.1-.5-.2-.4-.3-.7-.8-.6-1.3 0-.1 0-.3.1-.4.1-.2.1-.3.2-.4.1-.2.3-.3.4-.4.1-.1.3-.1.5-.2h.2c4-.1 8.1-.1 12.1 0H44.4c.1 0 .1.1.2.1.3.1.4.2.5.3 0 .1.1.1.1.2s.1.1.1.2.1.2.1.3v.2c.1 4 0 8.1 0 12.1v.2c0 .2-.1.3-.1.5-.1.2-.2.3-.4.5-.1.1-.2.2-.3.2-.5.2-1.1.2-1.5-.1-.1-.1-.3-.2-.4-.4l-.3-.6V7.6L23.1 27.1c-.1.1-.1.1-.2.1-.1.1-.3.2-.4.2-.2.1-.4.1-.6.1-.5 0-1-.3-1.2-.7-.1-.1-.1-.3-.2-.4 0-.1-.1-.3 0-.4 0-.3.1-.5.2-.7.1-.1.1-.2.2-.3 0-.1 19.5-19.5 19.5-19.5z"/><path class="st0" d="M22.1 6.5c.1 0 .2 0 .3.1.3.1.5.2.7.5.1.1.2.2.2.4.1.1.1.3.1.4.1.4-.1.9-.4 1.2l-.4.4c-.2.1-.4.1-.5.2H18.8c-1.7 0-3.4 0-5.1.1-.9.1-1.9.1-2.8.3-.3 0-.5.1-.8.1-.2 0-.3.1-.5.1-.8.2-1.6.5-2.2 1l-.3.3c-.3.4-.5.8-.7 1.2-.2.5-.3 1.1-.5 1.6-.2.8-.2 1.6-.3 2.4-.1 1.3-.1 2.7-.2 4v11.5c0 1.3.1 2.7.2 4 0 .3.1.7.1 1 .1.6.3 1.3.5 1.9.2.5.4 1 .8 1.4.7.8 1.7 1.2 2.7 1.4.2 0 .4.1.6.1.3 0 .5.1.8.1 1.4.2 2.8.2 4.1.3 1.6 0 3.3 0 4.9.1h7.1c1.3 0 2.6-.1 3.9-.2.8-.1 1.5-.2 2.3-.3.6-.1 1.3-.3 1.9-.6.3-.2.7-.4 1-.7.7-.7 1-1.6 1.3-2.5 0-.2.1-.3.1-.5.1-.3.1-.5.1-.8.1-.4.1-.7.1-1.1.1-1.2.2-2.4.2-3.5.1-2.1 0-4.1 0-6.2v-.1-.1c0-.2.1-.4.2-.5l.3-.3c.3-.3.8-.4 1.2-.4.1 0 .3.1.4.1.2.1.3.2.5.3.2.2.3.5.4.8v6.6c0 .7 0 1.4-.1 2.1 0 .5-.1 1.1-.1 1.6 0 .3-.1.7-.1 1 0 .2-.1.5-.1.7-.3 1.5-.7 3-1.6 4.2-.1.2-.3.4-.4.5-.2.3-.5.5-.8.7-.4.3-.9.6-1.3.8-1.1.5-2.2.8-3.4 1-.8.1-1.7.2-2.6.3-.9.1-1.8.1-2.7.1H15.4c-1.4 0-2.8-.1-4.3-.3-.3 0-.6-.1-1-.1-1.6-.2-3.1-.7-4.4-1.6-.2-.1-.4-.3-.5-.4l-.7-.7c-.1-.2-.3-.4-.4-.6-.8-1.2-1.2-2.6-1.4-4-.1-.3-.1-.6-.1-1 0-.3-.1-.7-.1-1-.1-.6-.1-1.1-.1-1.7 0-.8-.1-1.7-.1-2.5v-3.2-4-4.3c0-.8 0-1.6.1-2.4 0-.5.1-1.1.1-1.6 0-.4.1-.8.1-1.2.3-.5.4-.8.4-1 .3-1.4.7-2.8 1.5-4 .1-.2.3-.4.4-.5.3-.3.5-.5.8-.7.4-.4.9-.6 1.4-.9 1-.5 2-.7 3.1-.9.7-.1 1.5-.2 2.2-.3.8-.1 1.5-.1 2.3-.1 1.1 0 2.2-.1 3.3-.1h4.1z"/></svg>
